<svg xmlns="http://www.w3.org/2000/svg" xmlns:xlink="http://www.w3.org/1999/xlink" width="500" zoomAndPan="magnify" viewBox="0 0 375 374.999991" height="500" preserveAspectRatio="xMidYMid meet" version="1.0"><defs><g/><clipPath id="a0c72cb016"><path d="M 115 150.714844 L 261 150.714844 L 261 191.214844 L 115 191.214844 Z M 115 150.714844 " clip-rule="nonzero"/></clipPath><clipPath id="fcda5904ca"><path d="M 156 199 L 180 199 L 180 217.125 L 156 217.125 Z M 156 199 " clip-rule="nonzero"/></clipPath></defs><g fill="#000000" fill-opacity="1"><g transform="translate(115.832282, 215.66149)"><g><path d="M 7.796875 0.59375 C 6.585938 0.59375 5.359375 0.441406 4.109375 0.140625 C 2.859375 -0.148438 1.816406 -0.535156 0.984375 -1.015625 L 1.15625 -5.5 L 1.484375 -5.5 L 2.5 -3.359375 C 2.8125 -2.742188 3.140625 -2.195312 3.484375 -1.71875 C 3.835938 -1.25 4.320312 -0.882812 4.9375 -0.625 C 5.375 -0.40625 5.796875 -0.253906 6.203125 -0.171875 C 6.609375 -0.0976562 7.0625 -0.0625 7.5625 -0.0625 C 8.90625 -0.0625 9.960938 -0.421875 10.734375 -1.140625 C 11.515625 -1.867188 11.90625 -2.804688 11.90625 -3.953125 C 11.90625 -5.023438 11.640625 -5.863281 11.109375 -6.46875 C 10.585938 -7.070312 9.75 -7.660156 8.59375 -8.234375 L 7.234375 -8.8125 C 5.347656 -9.644531 3.875 -10.601562 2.8125 -11.6875 C 1.75 -12.78125 1.21875 -14.226562 1.21875 -16.03125 C 1.21875 -17.320312 1.550781 -18.4375 2.21875 -19.375 C 2.882812 -20.320312 3.816406 -21.046875 5.015625 -21.546875 C 6.210938 -22.054688 7.613281 -22.3125 9.21875 -22.3125 C 10.375 -22.3125 11.472656 -22.15625 12.515625 -21.84375 C 13.554688 -21.539062 14.460938 -21.125 15.234375 -20.59375 L 15.03125 -16.65625 L 14.703125 -16.65625 L 13.359375 -19.125 C 12.984375 -19.882812 12.609375 -20.421875 12.234375 -20.734375 C 11.867188 -21.054688 11.441406 -21.285156 10.953125 -21.421875 C 10.671875 -21.503906 10.410156 -21.5625 10.171875 -21.59375 C 9.929688 -21.632812 9.625 -21.65625 9.25 -21.65625 C 8.125 -21.65625 7.175781 -21.328125 6.40625 -20.671875 C 5.644531 -20.023438 5.265625 -19.15625 5.265625 -18.0625 C 5.265625 -16.945312 5.5625 -16.050781 6.15625 -15.375 C 6.75 -14.707031 7.613281 -14.113281 8.75 -13.59375 L 10.265625 -12.9375 C 12.367188 -12.007812 13.878906 -11.023438 14.796875 -9.984375 C 15.722656 -8.941406 16.1875 -7.597656 16.1875 -5.953125 C 16.1875 -4.023438 15.457031 -2.453125 14 -1.234375 C 12.539062 -0.015625 10.472656 0.59375 7.796875 0.59375 Z M 7.796875 0.59375 "/></g></g></g><g fill="#000000" fill-opacity="1"><g transform="translate(132.973893, 215.66149)"><g><path d="M 5.140625 0 L 5.140625 -0.328125 L 6.484375 -0.65625 C 7.378906 -0.851562 7.828125 -1.398438 7.828125 -2.296875 L 7.828125 -21.0625 L 5.03125 -21.0625 C 4.21875 -21.0625 3.632812 -20.847656 3.28125 -20.421875 C 2.9375 -19.992188 2.566406 -19.40625 2.171875 -18.65625 L 0.984375 -16.359375 L 0.65625 -16.359375 L 0.828125 -21.71875 L 19.8125 -21.71875 L 19.9375 -16.359375 L 19.609375 -16.359375 L 18.421875 -18.65625 C 18.054688 -19.40625 17.695312 -19.992188 17.34375 -20.421875 C 16.988281 -20.847656 16.40625 -21.0625 15.59375 -21.0625 L 12.796875 -21.0625 L 12.796875 -2.296875 C 12.796875 -1.398438 13.25 -0.851562 14.15625 -0.65625 L 15.5 -0.328125 L 15.5 0 Z M 5.140625 0 "/></g></g></g><g fill="#e81625" fill-opacity="1"><g transform="translate(153.601054, 215.66149)"><g/></g></g><g fill="#e81625" fill-opacity="1"><g transform="translate(160.773557, 215.66149)"><g/></g></g><g fill="#e81625" fill-opacity="1"><g transform="translate(167.94606, 215.66149)"><g/></g></g><g fill="#e81625" fill-opacity="1"><g transform="translate(175.118563, 215.66149)"><g/></g></g><g fill="#000000" fill-opacity="1"><g transform="translate(182.286706, 215.66149)"><g><path d="M 0.71875 0 L 0.71875 -0.328125 L 1.421875 -0.5625 C 1.859375 -0.71875 2.140625 -0.921875 2.265625 -1.171875 C 2.398438 -1.421875 2.46875 -1.773438 2.46875 -2.234375 L 2.46875 -19.453125 C 2.46875 -19.890625 2.40625 -20.234375 2.28125 -20.484375 C 2.164062 -20.734375 1.898438 -20.9375 1.484375 -21.09375 L 0.71875 -21.390625 L 0.71875 -21.71875 L 10.140625 -21.71875 C 12.722656 -21.71875 14.707031 -21.226562 16.09375 -20.25 C 17.476562 -19.28125 18.171875 -17.925781 18.171875 -16.1875 C 18.171875 -15.21875 17.804688 -14.25 17.078125 -13.28125 C 16.359375 -12.320312 15.21875 -11.582031 13.65625 -11.0625 L 18.234375 -1.96875 C 18.429688 -1.601562 18.65625 -1.300781 18.90625 -1.0625 C 19.15625 -0.832031 19.488281 -0.628906 19.90625 -0.453125 L 20.34375 -0.296875 L 20.34375 0 L 14.453125 0 L 9.578125 -10.359375 L 7.34375 -10.359375 L 7.34375 -2.234375 C 7.34375 -1.816406 7.40625 -1.476562 7.53125 -1.21875 C 7.664062 -0.957031 7.941406 -0.757812 8.359375 -0.625 L 9.140625 -0.328125 L 9.140625 0 Z M 7.34375 -11.03125 L 8.921875 -11.03125 C 10.492188 -11.03125 11.628906 -11.453125 12.328125 -12.296875 C 13.035156 -13.140625 13.390625 -14.394531 13.390625 -16.0625 C 13.390625 -17.75 13.0625 -19.003906 12.40625 -19.828125 C 11.75 -20.648438 10.640625 -21.0625 9.078125 -21.0625 L 7.34375 -21.0625 Z M 7.34375 -11.03125 "/></g></g></g><g fill="#000000" fill-opacity="1"><g transform="translate(202.948776, 215.66149)"><g><path d="M 0.71875 0 L 0.71875 -0.328125 L 1.484375 -0.625 C 1.859375 -0.78125 2.113281 -0.984375 2.25 -1.234375 C 2.394531 -1.484375 2.46875 -1.828125 2.46875 -2.265625 L 2.46875 -19.453125 C 2.46875 -19.890625 2.40625 -20.234375 2.28125 -20.484375 C 2.164062 -20.734375 1.898438 -20.9375 1.484375 -21.09375 L 0.71875 -21.390625 L 0.71875 -21.71875 L 16.484375 -21.71875 L 16.6875 -16.65625 L 16.359375 -16.65625 L 14.9375 -19.75 C 14.738281 -20.144531 14.53125 -20.460938 14.3125 -20.703125 C 14.09375 -20.941406 13.765625 -21.0625 13.328125 -21.0625 L 7.40625 -21.0625 L 7.40625 -11.546875 L 10.921875 -11.546875 C 11.359375 -11.546875 11.691406 -11.660156 11.921875 -11.890625 C 12.160156 -12.117188 12.363281 -12.429688 12.53125 -12.828125 L 13.203125 -14.15625 L 13.53125 -14.15625 L 13.53125 -8.234375 L 13.203125 -8.234375 L 12.53125 -9.609375 C 12.332031 -10.003906 12.125 -10.316406 11.90625 -10.546875 C 11.6875 -10.773438 11.359375 -10.890625 10.921875 -10.890625 L 7.40625 -10.890625 L 7.40625 -0.65625 L 14.046875 -0.65625 C 14.484375 -0.65625 14.820312 -0.769531 15.0625 -1 C 15.3125 -1.226562 15.507812 -1.550781 15.65625 -1.96875 L 17.015625 -5.0625 L 17.34375 -5.0625 L 17.140625 0 Z M 0.71875 0 "/></g></g></g><g fill="#000000" fill-opacity="1"><g transform="translate(221.209037, 215.66149)"><g><path d="M 0.71875 0 L 0.71875 -0.328125 L 1.421875 -0.59375 C 1.878906 -0.769531 2.164062 -0.984375 2.28125 -1.234375 C 2.40625 -1.484375 2.46875 -1.828125 2.46875 -2.265625 L 2.46875 -19.453125 C 2.46875 -19.890625 2.398438 -20.238281 2.265625 -20.5 C 2.140625 -20.757812 1.859375 -20.96875 1.421875 -21.125 L 0.71875 -21.390625 L 0.71875 -21.71875 L 9.109375 -21.71875 L 9.109375 -21.390625 L 8.515625 -21.125 C 8.097656 -20.96875 7.8125 -20.753906 7.65625 -20.484375 C 7.507812 -20.210938 7.4375 -19.859375 7.4375 -19.421875 L 7.4375 -0.65625 L 12.5 -0.65625 C 13.3125 -0.65625 13.910156 -0.851562 14.296875 -1.25 C 14.679688 -1.644531 15.050781 -2.21875 15.40625 -2.96875 L 16.6875 -5.71875 L 17.015625 -5.71875 L 16.71875 0 Z M 0.71875 0 "/></g></g></g><g fill="#000000" fill-opacity="1"><g transform="translate(238.975786, 215.66149)"><g><path d="M 0.328125 0 L 0.328125 -0.328125 L 0.890625 -0.5 C 1.347656 -0.644531 1.707031 -0.84375 1.96875 -1.09375 C 2.238281 -1.351562 2.503906 -1.679688 2.765625 -2.078125 L 7.828125 -9.90625 L 2.078125 -19.703125 C 1.859375 -20.078125 1.671875 -20.367188 1.515625 -20.578125 C 1.359375 -20.785156 1.070312 -20.976562 0.65625 -21.15625 L 0.125 -21.390625 L 0.125 -21.71875 L 8.953125 -21.71875 L 8.953125 -21.390625 L 8.1875 -21.15625 C 7.726562 -21 7.476562 -20.753906 7.4375 -20.421875 C 7.394531 -20.097656 7.503906 -19.707031 7.765625 -19.25 L 11.15625 -13.484375 L 14.78125 -19.21875 C 15.0625 -19.675781 15.226562 -20.09375 15.28125 -20.46875 C 15.34375 -20.84375 15.117188 -21.09375 14.609375 -21.21875 L 13.953125 -21.390625 L 13.953125 -21.71875 L 18.53125 -21.71875 L 18.53125 -21.390625 L 17.671875 -21.125 C 17.253906 -21.019531 16.929688 -20.835938 16.703125 -20.578125 C 16.472656 -20.328125 16.238281 -20.015625 16 -19.640625 L 11.578125 -12.765625 L 17.828125 -2.078125 C 18.078125 -1.679688 18.3125 -1.378906 18.53125 -1.171875 C 18.75 -0.960938 19.054688 -0.769531 19.453125 -0.59375 L 20.078125 -0.328125 L 20.078125 0 L 10.859375 0 L 10.859375 -0.328125 L 11.609375 -0.53125 C 12.140625 -0.65625 12.4375 -0.894531 12.5 -1.25 C 12.570312 -1.601562 12.460938 -2.007812 12.171875 -2.46875 L 8.265625 -9.140625 L 3.953125 -2.34375 C 3.660156 -1.894531 3.539062 -1.492188 3.59375 -1.140625 C 3.65625 -0.796875 3.894531 -0.566406 4.3125 -0.453125 L 4.765625 -0.328125 L 4.765625 0 Z M 0.328125 0 "/></g></g></g><g clip-path="url(#a0c72cb016)"><path fill="#000000" d="M 249.199219 183.394531 L 249.199219 159.941406 L 225.570312 159.941406 L 225.570312 170.910156 L 187.59375 150.714844 L 115.089844 189.042969 L 116.167969 191.105469 L 187.59375 153.320312 L 259.125 191.214844 L 260.203125 189.152344 Z M 227.945312 162.332031 L 246.933594 162.332031 L 246.933594 182.203125 L 227.945312 172.105469 Z M 227.945312 162.332031 " fill-opacity="1" fill-rule="nonzero"/></g><path fill="#e81625" d="M 169.574219 197.796875 L 167.324219 196.71875 C 167.261719 196.6875 167.183594 196.6875 167.117188 196.71875 L 160.722656 199.78125 C 160.640625 199.820312 160.589844 199.902344 160.589844 199.996094 C 160.589844 200.085938 160.640625 200.167969 160.722656 200.207031 L 162.972656 201.289062 C 163.007812 201.304688 163.042969 201.3125 163.078125 201.3125 C 163.113281 201.3125 163.148438 201.304688 163.179688 201.289062 L 169.574219 198.226562 C 169.660156 198.1875 169.710938 198.101562 169.710938 198.011719 C 169.710938 197.917969 169.660156 197.835938 169.574219 197.796875 Z M 169.574219 197.796875 " fill-opacity="1" fill-rule="nonzero"/><path fill="#e81625" d="M 159.625 201.101562 C 159.558594 201.144531 159.515625 201.21875 159.515625 201.300781 L 159.515625 208.375 C 159.515625 208.46875 159.566406 208.550781 159.648438 208.589844 L 166.292969 211.78125 C 166.328125 211.796875 166.363281 211.804688 166.398438 211.804688 C 166.441406 211.804688 166.484375 211.789062 166.523438 211.765625 C 166.59375 211.722656 166.636719 211.648438 166.636719 211.566406 L 166.636719 204.492188 C 166.636719 204.398438 166.585938 204.316406 166.5 204.277344 L 159.859375 201.085938 C 159.785156 201.050781 159.695312 201.054688 159.625 201.101562 Z M 161.214844 204.457031 C 161.308594 204.257812 161.515625 204.128906 161.738281 204.128906 C 161.824219 204.128906 161.910156 204.148438 161.992188 204.1875 L 164.4375 205.363281 C 164.578125 205.429688 164.683594 205.546875 164.734375 205.691406 C 164.785156 205.839844 164.777344 205.996094 164.710938 206.136719 C 164.578125 206.414062 164.222656 206.546875 163.933594 206.40625 L 161.484375 205.234375 C 161.347656 205.167969 161.242188 205.050781 161.1875 204.902344 C 161.136719 204.757812 161.144531 204.597656 161.214844 204.457031 Z M 161.214844 204.457031 " fill-opacity="1" fill-rule="nonzero"/><path fill="#e81625" d="M 167.800781 204.492188 L 167.800781 211.566406 C 167.800781 211.648438 167.84375 211.722656 167.914062 211.765625 C 167.953125 211.792969 167.996094 211.804688 168.042969 211.804688 C 168.078125 211.804688 168.113281 211.796875 168.144531 211.78125 L 174.789062 208.589844 C 174.871094 208.550781 174.925781 208.46875 174.925781 208.375 L 174.925781 201.304688 C 174.925781 201.222656 174.882812 201.148438 174.8125 201.105469 C 174.742188 201.058594 174.65625 201.054688 174.582031 201.089844 L 167.9375 204.277344 C 167.855469 204.316406 167.800781 204.398438 167.800781 204.492188 Z M 167.800781 204.492188 " fill-opacity="1" fill-rule="nonzero"/><path fill="#e81625" d="M 173.714844 199.785156 L 171.46875 198.707031 C 171.40625 198.675781 171.328125 198.675781 171.261719 198.707031 L 164.867188 201.769531 C 164.785156 201.808594 164.730469 201.890625 164.730469 201.984375 C 164.730469 202.074219 164.785156 202.160156 164.867188 202.199219 L 167.117188 203.277344 C 167.148438 203.292969 167.183594 203.300781 167.21875 203.300781 C 167.253906 203.300781 167.289062 203.292969 167.324219 203.277344 L 173.714844 200.214844 C 173.800781 200.175781 173.851562 200.089844 173.851562 200 C 173.851562 199.910156 173.800781 199.824219 173.714844 199.785156 Z M 173.714844 199.785156 " fill-opacity="1" fill-rule="nonzero"/><path fill="#e81625" d="M 155.996094 209.566406 C 156.070312 209.566406 156.144531 209.550781 156.21875 209.523438 C 156.523438 209.398438 156.671875 209.050781 156.550781 208.746094 C 154.648438 204.035156 156.039062 198.730469 160.007812 195.542969 C 164.132812 192.230469 169.875 192.230469 173.972656 195.191406 L 172.84375 196.097656 C 172.65625 196.25 172.578125 196.5 172.644531 196.730469 C 172.710938 196.960938 172.914062 197.128906 173.152344 197.15625 L 176.605469 197.523438 C 176.628906 197.527344 176.648438 197.527344 176.671875 197.527344 C 176.972656 197.527344 177.230469 197.300781 177.261719 196.996094 L 177.636719 193.558594 C 177.660156 193.316406 177.539062 193.085938 177.328125 192.96875 C 177.117188 192.855469 176.855469 192.878906 176.667969 193.03125 L 174.933594 194.421875 C 170.394531 190.960938 163.902344 190.886719 159.257812 194.613281 C 154.875 198.132812 153.34375 203.992188 155.441406 209.191406 C 155.535156 209.421875 155.757812 209.566406 155.996094 209.566406 Z M 155.996094 209.566406 " fill-opacity="1" fill-rule="nonzero"/><g clip-path="url(#fcda5904ca)"><path fill="#e81625" d="M 178.953125 199.625 C 178.824219 199.320312 178.476562 199.175781 178.171875 199.300781 C 177.867188 199.429688 177.722656 199.777344 177.847656 200.082031 C 179.789062 204.746094 178.386719 210.222656 174.433594 213.394531 C 170.308594 216.710938 164.566406 216.707031 160.46875 213.746094 L 161.597656 212.839844 C 161.785156 212.6875 161.863281 212.4375 161.796875 212.207031 C 161.726562 211.976562 161.527344 211.808594 161.289062 211.785156 L 157.835938 211.410156 C 157.675781 211.394531 157.519531 211.441406 157.398438 211.539062 C 157.273438 211.640625 157.195312 211.785156 157.179688 211.941406 L 156.808594 215.378906 C 156.78125 215.621094 156.902344 215.851562 157.113281 215.964844 C 157.203125 216.015625 157.300781 216.039062 157.402344 216.039062 C 157.535156 216.039062 157.667969 215.996094 157.777344 215.90625 L 159.507812 214.515625 C 161.757812 216.234375 164.488281 217.117188 167.234375 217.117188 C 170.03125 217.117188 172.84375 216.203125 175.183594 214.324219 C 179.546875 210.820312 181.097656 204.777344 178.953125 199.625 Z M 178.953125 199.625 " fill-opacity="1" fill-rule="nonzero"/></g></svg>